<?xml version="1.0" standalone="no"?><!DOCTYPE svg PUBLIC "-//W3C//DTD SVG 1.1//EN" "http://www.w3.org/Graphics/SVG/1.1/DTD/svg11.dtd"><svg t="1533192207441" class="icon" style="" viewBox="0 0 1024 1024" version="1.1" xmlns="http://www.w3.org/2000/svg" p-id="1706" xmlns:xlink="http://www.w3.org/1999/xlink" width="200" height="200"><defs><style type="text/css"></style></defs><path d="M206.636 381.09v196.365h223l66.93 130.909h146.298V599.273c0-36.15 29.305-65.455 65.454-65.455 36.607 0 65.912 29.305 65.912 65.455v65.454h43.134V359.273H773.76v87.278c0 36.147-29.302 65.449-65.448 65.449-36.147 0-65.45-29.302-65.45-65.449V315.636H293.887c0 36.15-29.305 65.455-65.454 65.455h-21.796zM686.5 336.223c-0.005 0.274-0.009 37.05-0.011 110.33 0.011 12.046 9.777 21.812 21.823 21.812 12.047 0 21.813-9.766 21.813-21.813 0.005-0.316 0.009-36.919 0.011-109.807 0.376-11.721 9.995-21.108 21.807-21.108h87.239c12.05 0 21.818 9.769 21.818 21.819v349.09c0 12.05-9.768 21.819-21.818 21.819h-86.77c-12.05 0-21.818-9.769-21.818-21.819v-87.272c0-12.05-9.769-21.818-21.819-21.818-12.507 0-22.275 9.768-22.275 21.818v130.909c0 12.05-9.768 21.818-21.818 21.818H469.866l-66.928-130.91h-218.12c-12.05 0-21.818-9.767-21.818-21.817v-240c0-12.05 9.768-21.818 21.818-21.818h43.614c12.05 0 21.818-9.769 21.818-21.819v-21.818c0-12.05 9.768-21.818 21.818-21.818h392.614c12.05 0 21.818 9.768 21.818 21.818v42.404z" p-id="1707"></path></svg>