<?xml version="1.0" standalone="no"?><!DOCTYPE svg PUBLIC "-//W3C//DTD SVG 1.1//EN" "http://www.w3.org/Graphics/SVG/1.1/DTD/svg11.dtd"><svg class="icon" height="512" viewBox="0 0 1024 1024" version="1.1" xmlns="http://www.w3.org/2000/svg"><path d="M617.408 496.448c133.952-179.968 69.888-354.176-90.56-400.256C451.264 74.368 341.312 138.944 352.768 241.408c10.56 96.064 101.504 123.52 92.672 224.896C483.968 441.664 549.376 422.656 617.408 496.448L617.408 496.448zM370.688 544.64c-222.912-25.92-341.632 116.8-301.44 278.656 19.008 76.352 129.664 139.456 212.864 78.208 77.824-57.152 56.256-149.632 148.352-192.576C389.952 687.488 340.864 640.384 370.688 544.64L370.688 544.64zM535.744 734.4c88.768 206.016 271.872 237.504 392.064 121.536 56.576-54.528 55.872-182.016-38.72-223.232-88.512-39.04-157.76 26.112-241.024-32.192C649.856 646.144 633.664 712.192 535.744 734.4L535.744 734.4zM427.712 560.128c-17.536 44.416 4.16 94.464 48.448 112.064 44.352 17.472 94.464-4.224 111.872-48.64 17.664-44.288-4.16-94.528-48.384-112C495.296 494.016 445.248 515.712 427.712 560.128L427.712 560.128z" /></svg>