<?xml version="1.0" standalone="no"?><!DOCTYPE svg PUBLIC "-//W3C//DTD SVG 1.1//EN" "http://www.w3.org/Graphics/SVG/1.1/DTD/svg11.dtd"><svg class="icon" height="512" viewBox="0 0 1024 1024" version="1.1" xmlns="http://www.w3.org/2000/svg"><path d="M635.11876 379.905258c0 23.281955-18.858963 42.159918-42.134918 42.188918h-304.949405c-23.199955-0.058-41.983918-18.878963-41.983918-42.085918v-223.999563c0-23.346954 18.841963-42.341917 41.983918-42.341917h305.049405c23.244955 0 42.137918 18.892963 42.137917 42.341917v223.845563h-0.101999z m358.911299-161.074685s0.511999-13.823973-15.56497-28.364945c-31.538938-28.517944-85.042834-75.877852-101.375802-92.36482-9.164982-9.266982-30.309941-14.642971-44.389913 0.205-13.413974 14.181972-7.577985 32.767936 2.354995 42.239917 14.079973 13.516974 45.92591 40.191922 64.050875 60.210883-15.103971 18.636964-39.986922 38.348925-55.551892 55.602891-2.047996 2.201996-1.893996 4.709991-1.893996 5.836989 0.102 9.829981 0.460999 16.741967 0.357999 20.837959-0.154 3.685993 4.095992 4.91499 5.989989 4.914991h78.847846c5.22199 0 6.553987 5.37599 6.553987 5.375989v509.746005c0 28.517944-15.35997 37.426927-31.180939 37.426926-15.769969 0-32.613936-9.010982-32.613936-37.375927V386.201246c0-37.733926-4.146992-54.937893-46.591909-57.189889-10.44498-0.613999-52.121898-0.154-74.802854 0V63.385876c0-35.020932-28.261945-63.385876-63.180877-63.385876H197.717614c-34.866932 0-63.129877 28.364945-63.129877 63.385876v851.966336H98.440808c-14.314972 0.029-25.907949 11.639977-25.90795 25.95795v38.604924c0 14.437972 11.621977 27.340947 25.90695 27.340947h684.644663c14.335972 0 25.957949-12.901975 25.957949-27.340947v-38.450925-0.102c0-14.346972-11.615977-25.980949-25.955949-26.009949h-34.971932V390.399238h43.468915c15.51397 0 16.895967 15.46197 16.895967 15.461969v401.253217c0 102.3998 84.274835 103.321798 93.695817 103.321798 12.594975 0 91.698821 0 91.698821-102.092801V218.827573h0.154z" /></svg>