<?xml version="1.0" standalone="no"?><!DOCTYPE svg PUBLIC "-//W3C//DTD SVG 1.1//EN" "http://www.w3.org/Graphics/SVG/1.1/DTD/svg11.dtd"><svg t="1532702483670" class="icon" style="" viewBox="0 0 1209 1024" version="1.1" xmlns="http://www.w3.org/2000/svg" p-id="1551" xmlns:xlink="http://www.w3.org/1999/xlink" width="236.1328125" height="200"><defs><style type="text/css"></style></defs><path d="M731.38176 602.74176v90.17856h153.67168s26.07616-64.79872 72.9088-72.0896c0 0 59.04896-0.43008 76.83072 0 35.17952 0.83968 66.74432 48.29184 72.63232 72.0896h72.63232v-90.17856h-448.67584zM398.22336 530.02752c60.83584-24.1152 54.94272 40.38144 54.94272 40.38144H343.25504V489.64096c63.6416-30.848 54.96832 40.38656 54.96832 40.38656zM1125.08928 536.76032c-60.8512-24.1152-54.95808 40.38144-54.95808 40.38144h109.92128V496.37888c-63.64672-30.84288-54.9632 40.38144-54.9632 40.38144zM714.26048 701.09184c0 1.8944-1.55136 3.44576-3.44576 3.44576H477.09696a3.456 3.456 0 0 1-3.44576-3.44576v-113.408c0-1.89952 1.55136-3.45088 3.44576-3.45088h233.71776c1.8944 0 3.44576 1.55136 3.44576 3.45088v113.408zM154.48576 647.36256c-54.52288 0-98.72384 44.20096-98.72384 98.72896 0 54.52288 44.20096 98.71872 98.72384 98.71872 54.528 0 98.72896-44.19584 98.72896-98.71872 0-54.53312-44.20096-98.72896-98.72896-98.72896z m0.04096 155.97056c-31.616 0-57.24672-25.63072-57.24672-57.24672 0-31.62112 25.6256-57.24672 57.24672-57.24672s57.2416 25.6256 57.2416 57.24672c0 31.62112-25.6256 57.24672-57.2416 57.24672z" fill="" p-id="1552"></path><path d="M996.37248 647.36256c-54.51776 0-98.72384 44.20096-98.72384 98.72896 0 54.52288 44.20608 98.71872 98.72384 98.71872 54.52288 0 98.72896-44.19584 98.72896-98.71872 0.00512-54.53312-44.20096-98.72896-98.72896-98.72896z m0.04096 155.97056c-31.616 0-57.24672-25.63072-57.24672-57.24672 0-31.62112 25.63072-57.24672 57.24672-57.24672s57.24672 25.6256 57.24672 57.24672c0 31.62112-25.63072 57.24672-57.24672 57.24672zM307.36384 602.94144l-4.49536-407.18848s-17.95584-44.8768-219.86816-15.70816c0 0-69.53984 143.58016-83.00032 249.02656v233.32352s15.70816 38.12864 41.50784 29.1584c0 0 10.08128-49.35168 68.41344-69.54496 0 0 74.03008-4.48512 105.45152 4.49536 0 0 38.13376 7.20896 49.34656 66.42176H453.1712v-89.97888H307.36384v-0.00512zM75.16672 447.5648s-20.90496 2.7648-17.95584-30.83264c7.28064-83.29728 47.11424-197.42208 47.11424-197.42208h143.57504s17.95584-2.24768 20.18816 17.9456c2.25792 20.19328 0 189.568 0 189.568s-6.17984 20.67968-24.65792 20.18816c-17.75104-0.47104-168.26368 0.55296-168.26368 0.55296z m198.53312 79.21152H179.47648v-38.144h94.22336v38.144zM439.7056 272.45056s47.11424 250.25024 60.57984 268.79488h300.63104s293.61152-87.23968 394.8544-178.42176c0 0 54.39488-149.51424-53.84704-238.66368h-379.1616c0.01024 0-246.7584 48.60416-323.05664 148.29056zM505.7024 299.52l256.7424-108.8 354.12992-7.68s52.91008 110.93504 18.35008 144.64c-33.03424 32.22016-341.76 138.24-341.76 138.24l-249.6 10.24-37.8624-176.64z" fill="" p-id="1553"></path><path d="M689.62304 417.8176l50.99008-29.13792a16.4352 16.4352 0 0 0 7.8336-17.90976l9.61536-5.49376a86.89152 86.89152 0 0 0 47.63136 32.78848c47.03744 12.83072 95.54944-14.88384 108.34944-61.80864 12.83584-47.04768-14.88896-95.55456-61.9264-108.38528-46.93504-12.8-95.44704 14.91456-108.27264 61.95712a86.87616 86.87616 0 0 0 4.06528 57.6768l-9.61536 5.49888a16.4352 16.4352 0 0 0-19.4048-2.34496l-50.98496 29.13792a16.47616 16.47616 0 0 0-6.12864 22.43584l5.4272 9.46688a16.4608 16.4608 0 0 0 22.42048 6.1184z m158.18752-174.15168c38.34368 10.45504 60.9024 49.93536 50.44224 88.27904-10.42944 38.22592-49.93536 60.9024-88.27392 50.44224-38.35392-10.45504-60.76416-50.0224-50.3296-88.24832 10.4448-38.3488 49.92-60.89728 88.16128-50.47296z m-65.76128 75.28448c9.26208-33.93024 44.288-53.95968 78.2336-44.6976 0.90624 0.24576 1.75616 0.57856 2.65728 0.8704a49.16224 49.16224 0 0 0-22.9888-13.9008c-26.23488-7.16288-53.30432 8.31488-60.47232 34.55488a49.08544 49.08544 0 0 0 1.17248 29.56288c0.34816-2.11968 0.8192-4.25984 1.39776-6.38976z" fill="" p-id="1554"></path></svg>