<?xml version="1.0" standalone="no"?><!DOCTYPE svg PUBLIC "-//W3C//DTD SVG 1.1//EN" "http://www.w3.org/Graphics/SVG/1.1/DTD/svg11.dtd"><svg t="1532705331432" class="icon" style="" viewBox="0 0 1024 1024" version="1.1" xmlns="http://www.w3.org/2000/svg" p-id="32345" xmlns:xlink="http://www.w3.org/1999/xlink" width="200" height="200"><defs><style type="text/css"></style></defs><path d="M812 528.7v300.1c0 13.9-4.8 25.7-14.6 35.4-9.7 9.7-21.6 14.6-35.4 14.6H262c-13.9 0-25.7-4.8-35.4-14.6-9.7-9.7-14.6-21.6-14.6-35.4V528.7c0-13.9 4.8-25.7 14.6-35.4 9.7-9.7 21.6-14.6 35.4-14.6h16.7v-100c0-63.9 22.9-118.8 68.8-164.5s100.7-68.8 164.5-68.8 118.8 22.9 164.5 68.8c45.8 45.8 68.8 100.7 68.8 164.5v100H762c13.9 0 25.7 4.8 35.4 14.6 9.7 9.7 14.6 21.5 14.6 35.4z m-433.4-50h266.6v-100c0-36.8-13-68.2-39.1-94.3-26.1-26.1-57.5-39.1-94.3-39.1s-68.2 13-94.3 39.1c-26.1 26.1-39.1 57.5-39.1 94.3v100h0.2z" p-id="32346"></path></svg>