<?xml version="1.0" standalone="no"?><!DOCTYPE svg PUBLIC "-//W3C//DTD SVG 1.1//EN" "http://www.w3.org/Graphics/SVG/1.1/DTD/svg11.dtd"><svg t="1532705285661" class="icon" style="" viewBox="0 0 1024 1024" version="1.1" xmlns="http://www.w3.org/2000/svg" p-id="30976" xmlns:xlink="http://www.w3.org/1999/xlink" width="200" height="200"><defs><style type="text/css"></style></defs><path d="M912 388.9V512c0 8.2-3 15.6-9.1 21.6-6 6-13.4 9.1-21.6 9.1h-30.7c-8.2 0-15.6-3-21.6-9.1s-9.1-13.3-9.1-21.6V388.9c0-34-12-63-36.1-87.1-24.1-24.1-53.1-36.1-87.1-36.1s-63 12-87.1 36.1c-24.1 24.1-36.1 53.1-36.1 87.1v92.4h46.1c12.8 0 23.7 4.5 32.6 13.5 9 9 13.5 19.9 13.5 32.6v276.9c0 12.8-4.5 23.7-13.5 32.6-9 9-19.9 13.5-32.6 13.5H158.1c-12.8 0-23.7-4.5-32.6-13.5-9-9-13.5-19.9-13.5-32.6V527.4c0-12.8 4.5-23.7 13.5-32.6 9-9 19.9-13.5 32.6-13.5h323.1v-92.4c0-59.3 21.1-110.1 63.2-152.2s92.8-63.2 152.2-63.2c59.3 0 110.1 21.1 152.2 63.2 42 42.2 63.2 92.9 63.2 152.2z" p-id="30977"></path></svg>