<?xml version="1.0" standalone="no"?><!DOCTYPE svg PUBLIC "-//W3C//DTD SVG 1.1//EN" "http://www.w3.org/Graphics/SVG/1.1/DTD/svg11.dtd"><svg t="1528421198715" class="icon" style="" viewBox="0 0 1821 1024" version="1.1" xmlns="http://www.w3.org/2000/svg" p-id="1471" xmlns:xlink="http://www.w3.org/1999/xlink" width="355.6640625" height="200"><defs><style type="text/css"></style></defs><path d="M908.915 42.666h30.411c4.237 0 7.061 3.557 7.061 7.112v15.659c0 4.294-2.825 7.138-7.061 7.138h-30.411c-4.238 0-7.060-2.844-7.060-7.138v-15.657c-0.001-3.557 2.822-7.113 7.060-7.113zM988.070 46.934l29.705 5.689c4.238 0.711 7.060 4.28 6.354 7.837l-2.825 15.646c-0.706 3.583-4.237 6.425-8.496 5.715l-29.68-4.978c-4.237-0.736-6.356-5.004-5.65-8.56l2.119-15.66c0.707-3.555 4.942-6.401 8.473-5.689zM1065.109 65.438l28.975 9.983c3.555 1.423 5.674 5.689 4.262 9.246l-5.673 14.935c-1.413 3.583-4.944 5.691-9.18 4.268l-28.269-10.669c-3.531-1.423-5.65-5.689-4.238-9.246l4.944-14.225c1.412-4.293 5.648-5.714 9.179-4.293zM1138.619 96.758l26.148 14.96c3.531 2.134 4.238 6.402 2.825 9.959l-7.767 13.538c-2.119 3.557-6.356 4.267-9.886 2.845l-26.15-15.648c-3.555-2.157-4.967-6.427-2.825-9.983l7.769-13.514c2.118-3.58 6.356-4.291 9.886-2.157zM1205.064 140.194l23.326 19.203c2.823 2.87 2.823 7.136 0.706 10.693l-9.909 12.117c-2.825 2.845-7.060 2.845-9.885 0.687l-23.326-19.916c-3.531-2.159-3.531-7.112-1.413-9.957l9.885-12.114c2.826-2.847 7.086-3.558 10.617-0.713zM1263.015 194.299l19.090 23.494c2.823 3.557 2.118 7.825-0.707 10.669l-12.027 9.959c-2.826 2.157-7.061 2.157-9.886-0.687l-19.796-23.497c-2.119-3.58-2.119-7.848 1.412-10.693l11.298-9.957c3.555-2.133 7.792-2.133 10.617 0.713zM1310.372 258.384l15.536 26.341c1.412 3.531 0.706 8.533-2.825 9.956l-13.417 7.825c-3.554 2.134-7.792 0.71-9.909-2.134l-14.827-27.051c-2.118-3.555-1.412-7.823 2.119-9.982l13.416-7.801c3.528-1.443 7.79-0.735 9.908 2.847zM1346.408 329.557l10.591 29.188c0.73 3.58-0.706 7.849-4.235 9.27l-14.83 4.955c-3.531 1.447-7.79-0.687-9.204-4.268l-10.592-28.45c-1.412-4.268 0.707-7.848 4.238-9.269l14.852-5.691c3.532-1.423 7.767 0.71 9.18 4.265zM1369.733 406.446l4.944 29.898c0.705 4.268-2.119 7.851-5.65 8.536l-15.558 2.844c-3.531 0.735-7.766-2.108-8.474-6.401l-4.942-29.898c-0.706-4.268 2.118-7.825 5.65-8.536l15.558-2.844c3.531-0.735 7.767 2.135 8.473 6.401zM1376.794 485.47v30.609c0 4.267-2.825 7.112-7.061 7.112h-15.558c-3.531 0-7.061-2.847-7.061-7.112v-30.609c0-4.268 3.531-7.138 7.061-7.138h15.558c4.237-0.001 7.061 2.869 7.061 7.138zM1374.677 565.201l-4.944 30.612c-0.706 3.555-4.942 6.399-8.473 5.689l-15.558-2.845c-3.532-0.711-6.356-4.267-5.65-8.536l4.942-29.896c0.709-4.267 4.944-6.427 8.474-5.691l15.558 2.134c3.531 0.711 6.354 4.977 5.65 8.533zM1356.999 642.804l-10.591 29.185c-1.413 3.555-5.65 5.691-9.18 4.269l-14.852-5.691c-3.531-0.711-5.65-4.979-4.238-9.249l10.592-28.498c1.413-3.555 5.673-5.691 9.204-4.268l14.83 5.002c3.529 1.421 4.966 5.689 4.235 9.249z" p-id="1472"></path><path d="M1325.908 716.846l-15.536 26.34c-2.118 3.559-6.379 4.268-9.909 2.847l-13.416-7.848c-3.531-2.134-4.237-6.401-2.119-9.96l14.827-26.341c2.118-3.555 6.356-4.978 9.909-2.844l13.417 7.823c3.531 2.133 4.237 6.402 2.826 9.983z" p-id="1473"></path><path d="M1282.105 783.752l-19.090 23.498c-2.825 2.844-7.061 2.844-10.617 0.711l-11.298-9.96c-3.531-2.844-3.531-7.136-1.412-9.98l19.796-23.494c2.825-3.558 7.060-3.558 9.886-1.425l12.027 9.983c2.825 2.848 3.531 7.113 0.707 10.667zM1228.391 842.126l-23.326 19.229c-3.531 2.844-7.79 2.134-10.615-0.713l-9.885-12.090c-2.118-2.871-2.118-7.139 1.413-9.983l23.326-19.938c2.825-2.135 7.060-2.135 9.885 1.423l9.909 11.402c2.116 3.558 2.116 7.826-0.707 10.67zM1164.767 889.83l-26.148 15.672c-3.531 1.421-7.767 0.711-9.886-2.847l-7.769-13.538c-2.142-3.555-0.73-7.822 2.825-9.957l26.15-14.96c3.531-2.134 7.766-1.421 9.886 2.134l7.767 13.538c1.413 3.553 0.706 7.82-2.825 9.957zM1094.084 926.151l-28.975 10.67c-3.531 0.709-7.767-0.713-9.179-4.268l-4.944-14.961c-1.413-3.557 0.707-7.826 4.238-9.247l28.269-10.694c4.237-1.421 7.766 0.713 9.18 4.295l5.673 14.934c1.412 3.557-0.707 7.826-4.262 9.272zM1017.777 949.622l-29.705 5.002c-3.531 0.711-7.766-2.159-8.473-5.715l-2.119-15.646c-0.706-3.555 1.413-7.851 5.65-8.559l29.68-4.979c4.261-0.711 7.79 2.135 8.496 5.688l2.825 15.674c0.706 3.557-2.118 7.825-6.354 8.536zM939.326 958.894h-30.411c-4.238 0-7.060-3.557-7.060-7.139v-15.646c0-4.267 2.823-7.113 7.060-7.113h30.411c4.237 0 7.061 2.847 7.061 7.113v15.646c0 3.583-2.825 7.139-7.061 7.139zM860.168 954.626l-29.705-5.002c-4.237-0.711-7.060-4.979-6.354-8.535l2.848-15.674c0.681-3.553 4.238-6.399 8.474-5.688l29.68 4.979c4.237 0.709 7.060 5.004 6.354 8.559l-2.823 15.646c-0.707 3.554-4.238 6.425-8.474 5.714zM783.129 936.821l-28.975-10.67c-3.555-1.446-5.648-5.715-4.237-9.272l5.65-14.934c1.412-3.583 4.942-5.718 9.18-4.295l28.269 10.694c3.531 1.421 5.65 5.691 4.237 9.247l-4.942 14.961c-1.414 3.555-5.651 4.977-9.182 4.268zM709.621 905.501l-26.15-15.672c-3.531-2.135-4.237-6.403-2.825-9.959l7.769-13.538c2.118-3.555 6.379-4.267 9.885-2.134l26.88 14.96c2.825 2.135 4.237 6.402 2.094 9.957l-7.743 13.538c-1.438 3.559-6.38 4.269-9.911 2.848zM643.175 861.355l-23.325-19.229c-2.825-2.844-2.825-7.112-0.683-10.67l9.885-11.402c2.825-3.558 7.061-3.558 10.615-1.423l23.302 19.938c2.825 2.844 2.825 7.112 0.706 9.983l-9.885 12.090c-2.823 2.847-7.061 3.557-10.615 0.713zM585.226 807.25l-19.090-23.498c-2.825-3.555-2.093-7.82 0.73-10.667l12.004-9.983c2.825-2.134 7.767-2.134 9.909 1.425l19.771 23.494c2.118 2.844 2.118 7.136-0.706 9.98l-12.004 9.96c-3.554 2.133-7.792 2.133-10.615-0.711zM537.892 743.186l-14.853-26.34c-2.118-3.581-1.412-7.851 2.119-9.983l13.416-7.823c3.555-2.134 7.79-0.711 9.909 2.844l15.559 26.341c1.412 3.558 0.681 7.826-2.825 9.96l-13.44 7.848c-3.555 1.421-7.792 0.714-9.885-2.847zM501.832 671.989l-9.909-29.185c-1.413-3.558 0-7.826 4.26-9.249l14.146-5.002c3.507-1.423 7.744 0.713 9.18 4.268l10.591 28.498c1.413 4.269-0.706 8.539-4.237 9.249l-14.853 5.691c-3.529 1.421-7.766-0.715-9.178-4.269zM479.211 595.813l-5.648-30.612c-0.706-3.555 2.119-7.822 5.648-8.535l15.559-2.134c3.531-0.735 7.767 1.424 8.473 5.691l4.944 29.896c0.729 4.269-2.119 7.823-5.65 8.536l-15.534 2.845c-3.555 0.71-7.085-2.134-7.792-5.688zM469.326 516.078v-30.609c0-4.268 3.531-7.138 7.061-7.138h15.534c4.26 0 7.085 2.87 7.085 7.138v30.609c0 4.267-2.825 7.112-7.085 7.112h-15.534c-3.531 0.001-7.061-2.845-7.061-7.112zM473.563 436.343l5.648-29.898c0.707-4.267 4.237-7.135 7.792-6.401l15.534 2.844c3.531 0.711 6.379 4.268 5.65 8.536l-4.944 29.898c-0.706 4.291-4.942 7.135-8.473 6.401l-15.559-2.843c-3.529-0.687-6.354-4.269-5.648-8.537zM491.922 358.745l9.909-29.188c1.412-3.555 5.648-5.688 9.179-4.267l14.853 5.691c3.529 1.423 5.648 5.001 4.237 9.269l-10.591 28.45c-1.436 3.581-5.673 5.717-9.18 4.268l-14.146-4.955c-4.261-1.421-5.674-5.691-4.261-9.269zM523.039 284.726l14.853-26.341c2.093-3.581 6.33-4.291 9.885-2.845l13.44 7.801c3.506 2.159 4.237 6.427 2.825 9.982l-15.558 27.050c-2.119 2.844-6.356 4.268-9.909 2.134l-13.416-7.825c-3.532-1.423-4.238-6.425-2.12-9.956zM566.136 217.793l19.090-23.494c2.823-2.845 7.061-2.845 10.615-0.711l12.004 9.957c2.823 2.845 2.823 7.113 0.706 10.693l-19.771 23.497c-2.142 2.844-7.085 2.844-9.909 0.687l-12.004-9.959c-2.823-2.845-3.555-7.113-0.73-10.67zM619.849 159.397l23.325-19.203c3.555-2.845 7.793-2.134 10.615 0.711l9.885 12.114c2.119 2.845 2.119 7.799-0.706 9.957l-23.302 19.916c-3.555 2.159-7.79 2.159-10.615-0.687l-9.885-12.117c-2.142-3.555-2.142-7.822 0.683-10.692zM683.471 111.718l26.15-14.96c3.531-2.134 8.473-1.423 9.911 2.157l7.743 13.514c2.142 3.557 0.73 7.825-2.094 9.983l-26.88 15.648c-3.506 1.423-7.767 0.711-9.885-2.845l-7.769-13.538c-1.412-3.557-0.706-7.823 2.825-9.959zM754.155 75.421l28.975-9.983c3.531-1.423 7.766 0 9.18 4.294l4.942 14.225c1.413 3.555-0.706 7.823-4.237 9.246l-28.269 10.669c-4.238 1.423-7.767-0.687-9.18-4.268l-5.65-14.935c-1.41-3.558 0.684-7.825 4.238-9.247zM830.463 52.623l29.705-5.689c4.237-0.711 7.767 2.134 8.474 5.689l2.823 15.66c0.706 3.557-2.119 7.823-6.354 8.56l-29.68 4.978c-4.237 0.711-7.793-2.133-8.474-5.715l-2.848-15.646c-0.706-3.555 2.118-7.124 6.354-7.837z" p-id="1474"></path><path d="M924.471 54.046c-244.531 0-443.847 200.756-443.847 447.071 0 245.63 199.316 446.373 443.847 446.373 243.827 0 443.144-200.743 443.144-446.373 0-246.314-199.317-447.071-443.144-447.071zM924.471 743.186c-132.868 0-241-108.944-241-242.069 0-133.837 108.133-242.733 241-242.733 132.165 0 240.296 108.896 240.296 242.733 0 133.126-108.131 242.069-240.296 242.069z" p-id="1475"></path><path d="M924.471 293.259c-113.779 0-206.377 93.248-206.377 207.857 0 113.924 92.598 207.879 206.377 207.879 113.075 0 206.379-93.955 206.379-207.879 0-114.608-93.304-207.857-206.379-207.857zM831.876 585.856c-12.71 7.113-28.975 2.844-36.742-9.982-7.061-12.804-2.825-29.189 9.909-37.011 12.71-7.112 28.975-2.847 36.742 9.957 7.061 12.824 2.823 29.185-9.909 37.035zM841.786 452.729c-7.767 12.803-24.034 17.069-36.742 9.956-12.734-7.822-16.971-24.206-9.909-37.033 7.767-12.803 24.032-17.070 36.742-9.959 12.733 7.848 16.971 24.207 9.909 37.035zM924.471 650.627c-14.827 0-26.856-12.093-26.856-27.052 0-14.936 12.028-26.341 26.856-26.341 14.147 0 26.151 11.404 26.151 26.341 0.001 14.96-12.002 27.052-26.151 27.052zM924.471 405.025c-14.827 0-26.856-12.090-26.856-27.051 0-14.962 12.028-27.052 26.856-27.052 14.147 0 26.151 12.090 26.151 27.052 0.001 14.96-12.002 27.051-26.151 27.051zM1053.105 575.874c-7.060 12.826-24.031 17.095-36.742 9.982-12.734-7.851-16.971-24.21-9.909-37.035 7.766-12.804 24.032-17.069 36.766-9.957 12.71 7.822 16.946 24.207 9.885 37.011zM1043.221 462.684c-12.734 7.112-28.999 2.847-36.766-9.956-7.060-12.828-2.823-29.188 9.909-37.035 12.711-7.112 29.68-2.844 36.742 9.959 7.061 12.827 2.825 29.211-9.885 37.033z" p-id="1476"></path></svg>