<?xml version="1.0" standalone="no"?><!DOCTYPE svg PUBLIC "-//W3C//DTD SVG 1.1//EN" "http://www.w3.org/Graphics/SVG/1.1/DTD/svg11.dtd"><svg t="1540371916206" class="icon" style="" viewBox="0 0 1024 1024" version="1.1" xmlns="http://www.w3.org/2000/svg" p-id="3465" xmlns:xlink="http://www.w3.org/1999/xlink" width="200" height="200"><defs><style type="text/css"></style></defs><path d="M512.00614 483.252316c-83.354263 0-162.02998 35.953791-215.878291 98.703826l43.649039 37.470328c42.894863-49.969988 105.672527-78.67674 172.229252-78.67674 66.51477 0 129.266851 28.706751 172.187296 78.67674l43.649039-37.470328c-53.87287-62.751057-132.524028-98.703825-215.836335-98.703826zM512.00614 648.611104c-62.455322 0-113.268513 50.02627-113.268514 111.458289 0 61.457601 50.813191 111.482848 113.268514 111.482847 62.412344 0 113.256234-50.02627 113.256234-111.482847 0-61.432018-50.84389-111.458288-113.256234-111.458289z m0 165.388464c-30.743127 0-55.742447-24.18477-55.742447-53.930175 0-29.747452 24.99932-53.932222 55.742447-53.932222 30.729824 0 55.729144 24.18477 55.729144 53.932222 0 29.746428-24.99932 53.930175-55.729144 53.930175zM512.00614 152.44776c-183.127441 0-356.127241 79.124947-474.605397 217.099092l43.650062 37.470328c107.55336-125.220706 264.626454-197.015725 430.955335-197.015725 166.345253 0 323.418348 71.795019 430.943055 197.015725l43.649038-37.470328C868.120078 231.572707 695.145861 152.44776 512.00614 152.44776z" p-id="3466"></path><path d="M512.00614 317.834177c-133.211688 0-259.049446 57.555742-345.228029 157.888667l43.651085 37.500004c75.223088-87.582556 185.16177-137.861582 301.576944-137.861582 116.344566 0 226.286317 50.279026 301.562617 137.861582l43.652109-37.500004c-86.232818-100.332926-212.071599-157.888668-345.214726-157.888667z" p-id="3467"></path></svg>